<svg xmlns="http://www.w3.org/2000/svg" viewBox="0 0 851.31 801.24"><title>Asset 20</title><g id="Layer_2" data-name="Layer 2"><g id="Layer_1-2" data-name="Layer 1"><polygon points="801.24 562.67 706.99 562.67 673.52 495.74 561.55 495.74 595.01 562.67 485.53 562.67 74.33 562.67 50.08 562.67 0 662.83 31.44 662.83 442.64 662.83 645.09 662.83 714.3 801.24 826.27 801.24 757.07 662.83 851.31 662.83 801.24 562.67"/><polygon points="194.4 462.52 160.93 529.46 272.91 529.46 306.38 462.52 378.77 462.52 789.97 462.52 801.24 462.52 851.31 362.37 795.02 362.37 383.82 362.37 356.45 362.37 425.66 223.96 478.25 329.15 590.23 329.15 425.66 0 244.47 362.37 0 362.37 50.08 462.52 194.4 462.52"/><polygon points="25.04 801.24 137.02 801.24 189.61 696.05 77.63 696.05 25.04 801.24"/></g></g></svg>