<svg xmlns="http://www.w3.org/2000/svg" viewBox="0 0 1006.45 200"><title>Asset 21</title><g id="Layer_2" data-name="Layer 2"><g id="Layer_1-2" data-name="Layer 1"><polygon points="200 140.45 176.47 140.45 168.12 123.74 140.17 123.74 148.52 140.45 121.2 140.45 18.55 140.45 12.5 140.45 0 165.45 7.85 165.45 110.49 165.45 161.02 165.45 178.3 200 206.25 200 188.97 165.45 212.5 165.45 200 140.45"/><polygon points="48.52 115.45 40.17 132.16 68.12 132.16 76.48 115.45 94.55 115.45 197.19 115.45 200 115.45 212.5 90.45 198.45 90.45 95.81 90.45 88.98 90.45 106.25 55.9 119.38 82.16 147.33 82.16 106.25 0 61.02 90.45 0 90.45 12.5 115.45 48.52 115.45"/><polygon points="6.25 200 34.2 200 47.33 173.74 19.38 173.74 6.25 200"/><path d="M906.45,0l-100,200H834.4l21-42L957.47,158l21,42.05h28ZM867.9,133l38.55-77.1L945,133Z"/><path d="M551.38,114.54c19.76-4.78,41-18.39,41.77-55.76-.61-40-32-58.78-59-58.78H435.8V200h28.13V116.58h56.21L561.91,200h31.44l-42.74-85.4Zm-87.45-23V25.06l70.86-.27c12.07,0,33.9,6.35,33.66,34,0,27.62-21.81,31.08-36.08,32.73Z"/></g></g></svg>